<svg width="27" height="42" viewBox="0 0 27 42" fill="none" xmlns="http://www.w3.org/2000/svg">
<path d="M12.8883 0.125C11.8697 0.125 10.8927 0.535529 10.1724 1.26627C9.45211 1.99702 9.04745 2.98812 9.04745 4.02155C9.04745 5.05498 9.45211 6.04609 10.1724 6.77683C10.8927 7.50758 11.8697 7.91811 12.8883 7.91811C13.907 7.91811 14.8839 7.50758 15.6043 6.77683C16.3246 6.04609 16.7292 5.05498 16.7292 4.02155C16.7292 2.98812 16.3246 1.99702 15.6043 1.26627C14.8839 0.535529 13.907 0.125 12.8883 0.125ZM12.8807 9.16501C12.8269 9.1663 12.7718 9.1715 12.7181 9.17669C12.6424 9.18302 12.5671 9.19386 12.4927 9.20917C12.471 9.21436 12.4505 9.21436 12.4287 9.21956L4.23737 11.2769C3.96179 11.346 3.70472 11.4762 3.48467 11.6581C3.26462 11.84 3.08706 12.0691 2.96476 12.329L0.24925 18.1219C0.109766 18.4187 0.0466755 18.7466 0.0658664 19.0749C0.0850572 19.4032 0.185904 19.7212 0.358997 19.9993C0.53209 20.2773 0.771789 20.5064 1.05573 20.665C1.33967 20.8237 1.6586 20.9068 1.98277 20.9066C2.34606 20.9071 2.70201 20.8029 3.00931 20.6064C3.3166 20.4098 3.56264 20.1288 3.71885 19.7961L6.04387 14.8358L10.3277 13.7603V23.8005L7.41891 31.6715L2.99549 28.9764C2.55848 28.7103 2.03517 28.6312 1.54068 28.7565C1.04619 28.8818 0.621022 29.2013 0.358716 29.6446C0.0964088 30.088 0.0184464 30.6189 0.141979 31.1205C0.265512 31.6222 0.58042 32.0535 1.01743 32.3196L7.41891 36.2162C7.66071 36.3635 7.93157 36.4549 8.21218 36.4839C8.49278 36.5128 8.77623 36.4786 9.04233 36.3837C9.58005 36.1941 10.0077 35.7707 10.2074 35.2291L12.6272 28.6738H12.6502L16.8585 33.4314L18.0415 40.0855C18.1326 40.5935 18.4184 41.0443 18.8365 41.3389C19.2546 41.6335 19.7707 41.7479 20.2718 41.6571C20.7733 41.5651 21.2183 41.2747 21.5088 40.8499C21.7993 40.4251 21.9116 39.9007 21.821 39.3919L20.5407 32.1962C20.4774 31.84 20.3178 31.5086 20.0798 31.239L15.4489 26.0046V15.406L18.8699 17.9284C19.1551 18.1398 19.4925 18.2668 19.8446 18.2955C20.1967 18.3242 20.5498 18.2533 20.8646 18.0907L25.9192 15.5008C26.1443 15.3856 26.3448 15.2266 26.5092 15.0327C26.6737 14.8389 26.7988 14.6141 26.8775 14.3711C26.9563 14.1282 26.987 13.8718 26.968 13.6168C26.949 13.3618 26.8806 13.1131 26.7667 12.8849C26.5369 12.4236 26.136 12.0737 25.6521 11.912C25.1682 11.7503 24.6407 11.79 24.1857 12.0225L20.1796 14.0773L14.8216 10.1288C14.2122 9.70533 13.846 9.37802 13.4363 9.24943C13.3762 9.23013 13.315 9.21409 13.2532 9.20137C13.1956 9.18968 13.138 9.18449 13.0778 9.17929C13.0112 9.1728 12.9472 9.16501 12.8807 9.16501Z" fill="white"/>
</svg>
